<svg xmlns="http://www.w3.org/2000/svg" width="99.363" height="24" viewBox="0 0 99.363 24">
  <defs>
    <style>
      .cls-1, .cls-2 {
        fill: red;
      }

      .cls-2 {
        stroke: #fff;
        stroke-width: 1.2px;
      }

      .cls-3 {
        fill: #fff;
      }
    </style>
  </defs>
  <g id="Group_1" data-name="Group 1" transform="translate(-20 -13)">
    <g id="on_platform_logo_dark" transform="translate(20 13)">
      <ellipse id="Ellipse_1" data-name="Ellipse 1" class="cls-1" cx="12.18" cy="12" rx="12.18" ry="12" transform="translate(0)"/>
      <ellipse id="Ellipse_2" data-name="Ellipse 2" class="cls-2" cx="7.308" cy="7.2" rx="7.308" ry="7.2" transform="translate(4.872 4.8)"/>
      <path id="Path_1" data-name="Path 1" class="cls-3" d="M9.744,15.545,16.071,12,9.744,8.455v7.09Z"/>
    </g>
    <path id="My_path" data-name="My path" class="cls-3" d="M40.853,6.86v.759c0,3.793-1.681,6.012-5.361,6.012h-.56V20.27H31.926V1.455h3.83C39.263,1.455,40.853,2.937,40.853,6.86Zm-3.161.271c0-2.737-.493-3.388-2.2-3.388h-.56v7.649h.516c1.614,0,2.244-1.167,2.244-3.7ZM47.965,6.3l-.158,3.566c-1.278-.269-2.334-.067-2.8.759v9.645H42.021V6.523H44.4l.269,2.98h.114C45.094,7.329,46.1,6.229,47.4,6.229A2.918,2.918,0,0,1,47.965,6.3Zm3.429,8.137v.695c0,2.422.134,3.254,1.167,3.254.986,0,1.211-.759,1.234-2.332l2.668.158c.2,2.959-1.345,4.284-3.969,4.284-3.184,0-4.127-2.087-4.127-5.875v-2.4c0-3.992,1.054-5.945,4.217-5.945,3.184,0,3.992,1.66,3.992,5.808v2.358Zm0-2.828v.986h2.265v-.981c0-2.528-.181-3.254-1.139-3.254s-1.126.741-1.126,3.254ZM71.986,9.883V20.267H68.893V10.113c0-1.121-.292-1.681-.966-1.681a1.593,1.593,0,0,0-1.369.9,5.089,5.089,0,0,1,.023.56V20.272h-3.1V10.113c0-1.121-.292-1.681-.966-1.681a1.574,1.574,0,0,0-1.345.875V20.275H58.08V6.524h2.445L60.8,8.274h.044a3.49,3.49,0,0,1,3.14-2.04,2.259,2.259,0,0,1,2.378,1.818,3.476,3.476,0,0,1,3.026-1.818C71.268,6.234,71.986,7.58,71.986,9.883ZM73.533,3c0-1.48.54-1.906,1.681-1.906C76.381,1.1,76.9,1.591,76.9,3c0,1.526-.517,1.908-1.681,1.908C74.073,4.91,73.533,4.528,73.533,3Zm.181,3.52h2.959V20.275H73.714Zm13.074,0V20.275H84.366L84.1,18.594H84.03A3.141,3.141,0,0,1,81.071,20.5c-1.839,0-2.67-1.167-2.67-3.7V6.526h3.094V16.621c0,1.211.253,1.7.875,1.7a1.53,1.53,0,0,0,1.32-.875V6.526h3.1Zm15.7,3.359V20.267H99.4V10.113c0-1.121-.292-1.681-.966-1.681a1.593,1.593,0,0,0-1.369.9,4.941,4.941,0,0,1,.023.555V20.267H93.99V10.113c0-1.121-.292-1.681-.966-1.681a1.574,1.574,0,0,0-1.345.875V20.274H88.585V6.523h2.443L91.3,8.272h.044a3.49,3.49,0,0,1,3.14-2.04A2.259,2.259,0,0,1,96.859,8.05a3.476,3.476,0,0,1,3.026-1.818C101.776,6.234,102.489,7.58,102.489,9.883ZM40.853,6.86v.759c0,3.793-1.681,6.012-5.361,6.012h-.56V20.27H31.926V1.455h3.83C39.263,1.455,40.853,2.937,40.853,6.86Zm-3.161.271c0-2.737-.493-3.388-2.2-3.388h-.56v7.649h.516c1.614,0,2.244-1.167,2.244-3.7Z" transform="translate(16.874 14.251)"/>
  </g>
</svg>
